<?xml version="1.0" encoding="utf-8"?>
<!-- Generator: Adobe Illustrator 26.0.2, SVG Export Plug-In . SVG Version: 6.00 Build 0)  -->
<svg version="1.1" id="圖層_1" xmlns="http://www.w3.org/2000/svg" xmlns:xlink="http://www.w3.org/1999/xlink" x="0px" y="0px"
	 viewBox="0 0 500 140" style="enable-background:new 0 0 500 140;" xml:space="preserve">
<style type="text/css">
	.st0{fill:url(#SVGID_1_);}
</style>
<linearGradient id="SVGID_1_" gradientUnits="userSpaceOnUse" x1="34.1932" y1="32.129" x2="475.8793" y2="144.5014">
	<stop  offset="0" style="stop-color:#83DD78"/>
	<stop  offset="1" style="stop-color:#36E2A9"/>
</linearGradient>
<path class="st0" d="M485.4,56.5c4.3,4.5,6.8,9.7,7.5,15.8l0.1,3c0,7.4-2.5,13.6-7.6,18.6c-1.8,1.9-3.6,3.4-5.7,4.6
	c-3.7,2.2-7.9,3.3-12.5,3.3c-7,0-13.1-2.6-18.2-7.9c-5-5.1-7.5-11.3-7.5-18.6l0.2-3c0.6-6,3-11.3,7.2-15.8
	c5.1-5.2,11.2-7.8,18.2-7.8c4.7,0,8.8,1.1,12.5,3.3C481.8,53.2,483.6,54.6,485.4,56.5L485.4,56.5z M479.6,75.3L479.6,75.3l-0.2-3
	c-0.4-3.1-1.6-5.9-3.4-8.3c-2.4-3.1-5.3-4.7-8.7-4.7c-3.4,0-6.2,1.6-8.6,4.7c-1.8,2.4-2.9,5.2-3.3,8.3l-0.2,3
	c0,4.3,1.1,8.1,3.5,11.2s5.3,4.7,8.6,4.7c3.4,0,6.3-1.6,8.7-4.7C478.3,83.4,479.6,79.7,479.6,75.3L479.6,75.3z M435,55.5L435,55.5
	v44.6c-0.1,1.6-0.4,3-0.8,4.5c-1.1,3.8-3.3,7.2-6.6,10.2c-5,4.8-11.1,7.1-18.1,7.1c-7.1,0-13.1-2.4-18.2-7.1c-1-0.9-2-1.9-2.7-2.9
	l-0.7-1c-0.2-0.2-0.3-0.6-0.4-1.1l-0.3-1.1l-0.1-0.8l0.1-1.1v-0.1c0.2-1,0.7-2.1,1.6-2.9c1.1-1.1,2.6-1.7,4.1-1.7
	c1.2,0,2.1,0.2,2.5,0.5l1.4,1.2l1.2,1.4l0.4,0.6l0.1,0.1l1.4,1.6c2.6,2.5,5.8,3.7,9.4,3.7c3.7,0,6.8-1.2,9.5-3.7
	c1.8-1.6,2.9-3.3,3.4-5.4v-0.7v-7l-0.2,0.3c-4.1,4.5-9.2,6.7-15,6.7c-4,0-7.7-1-11-3.2c-1.8-1.2-3.4-2.7-4.9-4.6
	c-1.9-2.1-3.3-4.5-4.3-7c-1.1-2.6-1.9-5.5-2.1-8.5l-0.2-3.1l0.1-2.8c0.1-1.6,0.4-3.1,0.7-4.6c1-4.2,2.9-8,5.8-11.3
	c4.5-5.1,9.7-7.7,15.9-7.7c6,0,11.1,2.3,15.2,6.9v-0.1c0-1.8,0.5-3.3,1.7-4.6c1.3-1.1,2.9-1.8,4.8-1.8c1.7,0,3.2,0.6,4.5,1.8
	C434.2,52.2,435,53.8,435,55.5L435,55.5z M421.7,72.3L421.7,72.3c-0.4-3.2-1.6-6-3.3-8.4c-2.2-3.1-4.9-4.7-8.1-4.7
	c-2.8,0-5.2,1.2-7.1,3.6l-0.2,0.2l-0.6,0.8c-1.8,2.4-2.8,5.2-3.2,8.4l-0.2,2.8v0.7c0.1,4,1.2,7.6,3.3,10.4l1,1.2
	c2,2.3,4.3,3.5,7,3.5c2.4,0,4.6-0.8,6.4-2.6l1.8-2.1c2.1-2.6,3.2-5.8,3.5-9.5v-1.7L421.7,72.3L421.7,72.3z M371.3,53.9L371.3,53.9
	c3.5,3.4,5.4,7.6,5.5,12.4V67v0.5v27.8c0,1.8-0.7,3.3-2.1,4.5c-1.2,1.2-2.8,2-4.5,2c-1.8,0-3.4-0.6-4.7-2c-1.1-1.1-1.8-2.7-1.8-4.5
	v-27l-0.1-1.4l-0.3-1.3c-0.5-1.4-1.3-2.7-2.6-3.8c-1.9-2-4.1-2.9-6.9-2.9s-5.1,0.9-6.8,2.9c-1.9,1.8-2.8,3.9-2.9,6.6v27
	c0,1.8-0.6,3.3-2,4.5c-1.2,1.2-2.8,2-4.6,2s-3.3-0.6-4.7-2c-1.1-1.1-1.7-2.7-1.7-4.5V55.5c0-1.8,0.5-3.3,1.7-4.6
	c1.3-1.1,2.9-1.8,4.7-1.8c1.8,0,3.2,0.6,4.6,1.8c1.2,1.2,2,2.7,2,4.3l1.2-1.3c3.5-3.5,7.9-5.3,13-5.3c2.9,0,5.6,0.6,8,1.8
	C368.1,51.2,369.7,52.3,371.3,53.9L371.3,53.9z M322.4,75.3L322.4,75.3c0,7.4-2.5,13.6-7.4,18.7c-4.8,5.1-10.5,7.8-17.2,7.9h-0.4
	c-1.6-0.1-2.8-0.6-3.9-1.8c-0.8-0.8-1.3-1.8-1.6-2.9l-0.1-1.1V96l0.1-1.1c0.2-1.1,0.7-2.1,1.6-2.9c0.9-0.9,2.1-1.4,3.2-1.7h0.8h0.8
	c2.9-0.2,5.3-1.8,7.4-4.5c2.4-2.9,3.5-6.4,3.5-10.7l-0.2-3c-0.4-2.9-1.6-5.5-3.4-7.8c-2-2.6-4.3-3.9-7-4.2l-1.2-0.1l-1.1,0.1
	c-1.1-0.3-2.2-0.8-3-1.7c-1.1-1.1-1.7-2.4-1.7-4c0-1.6,0.5-3,1.7-4.1c1-1,2.4-1.6,3.9-1.7h0.4c6.7,0.1,12.4,2.7,17.2,7.8
	c4.2,4.5,6.6,9.6,7.4,15.7L322.4,75.3L322.4,75.3z M278.2,58.6L278.2,58.6c3.1,3.9,5,8.5,5.6,13.7l0.1,3.1c0,6.4-1.9,11.9-5.7,16.7
	l-1.9,2.1c-5,5.3-11.1,7.9-18.1,7.9c-7.1,0-13.1-2.6-18.2-7.9l-1.8-2.1c-3.8-4.8-5.8-10.2-5.8-16.7l0.2-3.1
	c0.5-5.1,2.4-9.6,5.6-13.7l1.8-2.1c5.1-5.2,11.1-7.8,18.2-7.8c7,0,13.1,2.6,18.1,7.8L278.2,58.6L278.2,58.6z M218.4,48.8L218.4,48.8
	h0.5c1.4,0.1,2.7,0.6,3.8,1.7c1.1,1.1,1.7,2.5,1.7,4.1c0,1.6-0.5,2.9-1.7,4c-0.8,0.8-1.8,1.3-2.9,1.7h-1.2h-1.1
	c-2.8,0.3-5.1,1.8-7,4.2c-1.8,2.3-2.9,4.9-3.4,7.8c-0.1,0.9-0.1,2-0.1,3c0,4.1,1.1,7.7,3.5,10.7c1.4,2,3.2,3.3,5.1,4l2.3,0.4h0.8
	h0.8c1.1,0.2,2.3,0.7,3.2,1.7c0.8,0.8,1.2,1.9,1.6,2.9l0.1,1.1v0.1l-0.1,1.1c-0.2,1.1-0.7,2.1-1.6,2.9c-1.1,1-2.4,1.7-3.8,1.8h-0.4
	c-6.7-0.1-12.4-2.8-17.2-7.9c-5-5.2-7.4-11.4-7.4-18.7l0.2-3.1c0.6-6,3-11.3,7.2-15.7C206,51.5,211.6,48.9,218.4,48.8L218.4,48.8z
	 M270.2,72.3L270.2,72.3c-0.4-3.1-1.6-5.9-3.4-8.2c-2.4-3.1-5.3-4.7-8.6-4.7c-3.4,0-6.3,1.6-8.6,4.7c-1.8,2.4-2.9,5.1-3.4,8.2
	l-0.2,3.1c0,4.5,1.2,8.2,3.6,11.2c2.4,3.1,5.2,4.7,8.6,4.7c3.4,0,6.2-1.6,8.6-4.7c2.4-3.1,3.6-6.8,3.6-11.2L270.2,72.3L270.2,72.3z
	 M182,56.3L182,56.3c3.9,4.6,6.1,9.8,6.5,16l0.1,2.6c0,7.2-2.2,13.5-6.6,18.5c-4.5,5.2-9.7,7.8-15.9,7.8c-5.9,0-11.1-2.3-15.2-7v1.2
	c0,1.8-0.6,3.3-2,4.5c-1.2,1.2-2.8,2-4.5,2c-1.8,0-3.4-0.6-4.8-2c-1.1-1.1-1.7-2.7-1.7-4.5V37.1c0-1.8,0.5-3.3,1.7-4.6
	c1.3-1.2,2.9-1.9,4.8-1.9c1.7,0,3.2,0.6,4.5,1.9c1.3,1.2,2,2.8,2,4.6v18.3c4.2-4.7,9.3-6.9,15.2-6.9C172.3,48.5,177.6,51.1,182,56.3
	L182,56.3z M170.8,63.7L170.8,63.7c-2.3-3.1-5-4.7-8.1-4.7c-3.2,0-5.9,1.6-8.1,4.7c-1.9,2.5-3,5.3-3.3,8.6l-0.2,2.6
	c0,4.5,1.1,8.2,3.5,11.1c2.2,3.1,4.9,4.7,8.1,4.7c3.1,0,5.8-1.6,8.1-4.7c2.3-3,3.3-6.7,3.3-11.1l-0.1-2.6
	C173.7,69,172.5,66.1,170.8,63.7L170.8,63.7z M107,47.8L107,47.8c3.1,7.1,4.6,14.8,4.6,23.1v1.4c-0.2,7.8-1.8,15-4.6,21.7
	c-2.9,6.5-7,12.6-12.5,18.1c-11.4,11.4-25.2,17.2-41.3,17.2s-29.9-5.7-41.3-17.2l-0.7-0.8l-0.9-0.9c-0.7-0.9-1-2.1-1-3.4
	c0-1.6,0.5-3,1.7-4c1.1-1.1,2.5-1.7,4-1.7c1,0,2,0.2,2.7,0.6l2.2,2.3l0.4,0.3c9.1,9,20.1,13.6,33,13.6c13,0,24.1-4.7,33.3-13.9
	c3.3-3.3,6-6.8,8.1-10.6c3.6-6.4,5.6-13.6,5.8-21.4v-1.4c0-13-4.7-24.2-13.9-33.4c-8.4-8.4-18.3-12.9-29.8-13.7l-3.5-0.1
	c-9.5,0-18,2.5-25.6,7.4c-2.8,1.9-5.5,4-8,6.5l-2.3,2.5c-0.8,0.5-1.8,0.7-2.9,0.7c-1.6,0-3-0.6-4.1-1.8c-1.1-1.1-1.7-2.4-1.7-3.9
	c0-1.2,0.3-2.3,0.9-3.2l1.4-1.6l0.7-0.7c4.9-4.8,10.1-8.5,15.7-11.3c7.8-3.8,16.3-5.8,25.6-5.8l3.5,0.1c14.7,0.7,27.2,6.4,37.8,17
	C99.9,35,104.1,41.2,107,47.8L107,47.8z M57.7,57.4L57.7,57.4c6.2,0,11.6,2.3,16,6.8c1.2,1.2,2.4,2.7,3.3,4.1
	c0.7,1.2,1.3,2.6,1.9,3.9c0.9,2.6,1.4,5.5,1.4,8.5c0,4.7-1.1,8.8-3.3,12.4l-0.2,0.1l-1.3,2l-1.8,2c-4.5,4.6-9.8,7-16.4,7.2l-16-0.4
	l0.9,0.1c-1.6,0-2.9-0.6-3.9-1.8c-1.1-1-1.7-2.4-1.7-3.8c0-1.6,0.5-2.9,1.7-4l0.7-0.5c0.9-0.6,2-0.8,3.2-0.8l18.2-0.7
	c1.4-0.6,2.8-1.6,4-2.9c2.5-2.4,3.6-5.3,3.6-8.8c0-3.3-1-6.1-3.2-8.5l-0.5-0.4c-1.7-1.8-3.6-3-5.9-3.4c-5.5-0.3-11-0.3-16.5,0h-0.5
	c-0.9-0.1-1.8-0.4-2.5-0.9l-0.8-0.7c-1-0.9-1.6-2.1-1.6-3.2V63V41.3c0-1.6,0.5-2.8,1.4-3.9c1.1-1,2.5-1.6,4-1.6
	c1.4,0,2.7,0.5,3.8,1.6c1.1,1.1,1.8,2.4,1.8,3.9v18.6C50.8,58.2,54.1,57.4,57.7,57.4L57.7,57.4z M45.9,75.1L45.9,75.1
	c1.6,0,2.9,0.5,4,1.7s1.8,2.5,1.8,4s-0.6,2.9-1.8,4c-1,1.1-2.4,1.8-4,1.8h-0.7c-1.2-0.2-2.4-0.7-3.4-1.8c-1.1-1.1-1.7-2.4-1.7-4
	c0-1.6,0.5-2.9,1.7-4c0.9-0.9,2.1-1.4,3.3-1.6L45.9,75.1L45.9,75.1z"/>
</svg>
