<?xml version="1.0" encoding="utf-8"?>
<!-- Generator: Adobe Illustrator 25.4.1, SVG Export Plug-In . SVG Version: 6.00 Build 0)  -->
<svg version="1.1" id="圖層_1" xmlns="http://www.w3.org/2000/svg" xmlns:xlink="http://www.w3.org/1999/xlink" x="0px" y="0px"
	 viewBox="0 0 300 186" style="enable-background:new 0 0 300 186;" xml:space="preserve">
<style type="text/css">
	.st0{fill:#00FF95;}
	.st1{display:none;}
	.st2{display:inline;}
</style>
<g>
	<path class="st0" d="M276.6,27.5c6.5,0,11.8,5.3,11.8,11.8v109.1c0,6.5-5.3,11.8-11.8,11.8H23.4c-6.5,0-11.8-5.3-11.8-11.8V39.3
		c0-6.5,5.3-11.8,11.8-11.8H276.6 M276.6,23.9H23.4C14.9,23.9,8,30.8,8,39.3v109.1c0,8.5,6.9,15.4,15.4,15.4h253.1
		c8.5,0,15.4-6.9,15.4-15.4V39.3C292,30.8,285.1,23.9,276.6,23.9L276.6,23.9z"/>
</g>
<g>
	<path class="st0" d="M99.9,151.5H37.4c-8.5,0-15.4-6.9-15.4-15.4V50c0-8.5,6.9-15.4,15.4-15.4h62.5V151.5z M91.2,96.3
		c-2.6-3.4-5.8-5.4-9.7-5.7c3.6-1.9,6.2-4.1,7.8-6.6c1.7-2.5,2.5-5.7,2.5-9.7c0-11.4-7.4-17-22.3-17h-29c-3.2,0-5.8,0.8-7.8,2.3
		c-2.2,1.8-3.4,4.2-3.4,7.3v51.6c0,6.8,3.9,10.1,11.7,10.1H71c7.3,0,13.1-1.7,17.3-5c4.5-3.7,6.8-9.1,6.8-16.3
		C95.2,103.3,93.8,99.7,91.2,96.3z M76.3,83.7c-1.6,1.5-3.7,2.2-6.3,2.2H42.8v-9.4c0-4.7,2.5-7.1,7.5-7.1h19.6
		c5.9,0,8.8,2.6,8.8,7.9C78.7,80,77.9,82.1,76.3,83.7z M78.8,114.1c-1.9,1.5-4.5,2.3-7.8,2.3H50c-4.8,0-7.2-2.3-7.2-6.9V97.9H71
		c7.3,0,11,3,11,8.9C82,109.9,81,112.4,78.8,114.1z"/>
</g>
<g>
	<path class="st0" d="M111.1,34.6h77.9v116.9h-77.9V34.6z M180.1,63.7c0-4.3-2.2-6.4-6.6-6.4c-3.9,0-5.9,2.2-5.9,6.4v41.7
		l-34.9-44.9c-1.8-2.2-4-3.3-6.7-3.3c-3.9,0-5.9,2.2-5.9,6.4V122c0,4.4,2,6.5,5.9,6.5c4.4,0,6.6-2.2,6.6-6.4V79.4l35.5,45.7
		c1.8,2.3,4,3.5,6.4,3.5c3.7,0,5.5-2.2,5.5-6.7V63.7z"/>
</g>
<g>
	<path class="st0" d="M200.1,34.6h62.5c8.5,0,15.4,6.9,15.4,15.4v86.2c0,8.5-6.9,15.4-15.4,15.4h-62.5V34.6z M271.5,98.9
		c0-5-2.7-7.5-8.1-7.5h-17.2c-3.7,0-5.6,1.9-5.6,5.7c0,3.8,1.9,5.7,5.6,5.7h12.5c-3.5,9.8-9.9,14.6-19.3,14.6
		c-6.7,0-11.9-2.5-15.6-7.4c-3.2-4.4-4.8-10.1-4.8-17.1c0-6.4,1.7-11.9,5.2-16.7c3.8-5.3,8.8-8,14.9-8c8.2,0,15.6,4.3,20.6,10.7
		c1.7,2.2,3.9,3.3,6.7,3.3c1.5,0,2.8-0.6,3.7-1.7c1-1.2,1.5-2.5,1.5-4.1c0-2.8-1.7-6-5-9.3c-6-6.3-15.5-10.6-26.8-10.6
		c-10.7,0-19.1,3.5-25.1,10.5c-5.7,6.5-8.5,15.3-8.5,26.2c0,10.2,2.7,18.6,8,25.1c5.7,7,13,10.7,23,10.7c8.9,0,16.5-3,21.6-8.3
		c-0.1,5.6,2,8.3,6.2,8.3c4.4,0,6.7-2.7,6.7-8.2V98.9z"/>
</g>
<g class="st1">
	<g class="st2">
		<g>
			<path class="st0" d="M101,110.9c0,9-2.9,15.9-8.6,20.5c-5.3,4.2-12.6,6.3-21.9,6.3H32.8c-9.8,0-14.7-4.3-14.7-12.8V59.7
				c0-3.9,1.4-6.9,4.2-9.2c2.5-1.9,5.8-2.9,9.8-2.9h36.6c18.8,0,28.2,7.2,28.2,21.5c0,5-1,9.1-3.1,12.2c-2.1,3.1-5.4,5.9-9.9,8.3
				c4.8,0.5,8.9,2.9,12.2,7.3C99.3,101.2,101,105.9,101,110.9z M80.2,73c0-6.7-3.7-10-11.1-10H44.3c-6.3,0-9.4,3-9.4,8.9v11.8h34.3
				c3.3,0,6-0.9,8-2.8C79.2,79.1,80.2,76.4,80.2,73z M84.4,110.3c0-7.5-4.6-11.2-13.9-11.2H34.9v14.6c0,5.8,3,8.7,9.1,8.7h26.6
				c4.1,0,7.4-1,9.8-2.9C83.1,117.3,84.4,114.2,84.4,110.3z"/>
		</g>
		<g>
			<path class="st0" d="M190,129.2c0,5.7-2.3,8.5-7,8.5c-3.1,0-5.9-1.5-8.1-4.4L130,75.6v53.9c0,5.4-2.8,8.1-8.4,8.1
				c-5,0-7.5-2.8-7.5-8.3V55.8c0-5.4,2.5-8.1,7.5-8.1c3.4,0,6.3,1.4,8.5,4.1l44.1,56.7V55.8c0-5.4,2.5-8.1,7.5-8.1
				c5.6,0,8.4,2.7,8.4,8.1V129.2z"/>
		</g>
		<g>
			<path class="st0" d="M286.1,128c0,6.9-2.8,10.4-8.4,10.4c-5.3,0-7.9-3.5-7.8-10.5c-6.4,6.8-16,10.5-27.3,10.5
				c-12.7,0-21.8-4.8-29.1-13.6c-6.7-8.2-10.1-18.7-10.1-31.7c0-13.8,3.6-24.8,10.8-33.1c7.6-8.8,18.1-13.2,31.7-13.2
				c14.3,0,26.3,5.4,33.9,13.4c4.2,4.3,6.3,8.2,6.3,11.8c0,1.9-0.6,3.7-1.9,5.1c-1.2,1.4-2.7,2.1-4.7,2.1c-3.4,0-6.2-1.4-8.4-4.2
				c-6.3-8-15.7-13.5-26.1-13.5c-7.7,0-14,3.4-18.8,10.1c-4.4,6-6.5,13-6.5,21c0,8.9,2,16.1,6.1,21.6c4.7,6.2,11.3,9.4,19.8,9.4
				c11.8,0,19.9-6.2,24.3-18.5H254c-4.7,0-7-2.4-7-7.2c0-4.8,2.3-7.2,7-7.2h21.7c6.9,0,10.3,3.2,10.3,9.5V128z"/>
		</g>
	</g>
</g>
</svg>
