<?xml version="1.0" encoding="utf-8"?>
<!-- Generator: Adobe Illustrator 26.0.2, SVG Export Plug-In . SVG Version: 6.00 Build 0)  -->
<svg version="1.1" id="圖層_1" xmlns="http://www.w3.org/2000/svg" xmlns:xlink="http://www.w3.org/1999/xlink" x="0px" y="0px"
	 viewBox="0 0 500 140" style="enable-background:new 0 0 500 140;" xml:space="preserve">
<style type="text/css">
	.st0{fill:#FFFFFF;}
	.st1{fill:#FFE800;}
	.st2{fill:#00AEEF;}
	.st3{fill:#02B5A5;}
	.st4{fill:#FCB040;}
	.st5{fill:#ED1C24;}
	.st6{fill:#EC008C;}
</style>
<g>
	<path class="st0" d="M10.8,34.5c12.7,0,25.5,0,38.2,0c5.7,0,9.1,3.4,9.2,9.2c0,3.6,0,7.2,0,10.7c0,5.6-3.5,9-9,9.1
		c-9.4,0-18.8,0-28.2,0c-0.9,0-1.8,0-3,0c0,5.4,0,10.6,0,16c-2.6,0-4.8,0-7.1,0C10.8,64.5,10.8,49.5,10.8,34.5z M34.5,41.3
		c-4.7,0-9.3,0.1-14,0c-1.9,0-2.7,0.7-2.6,2.6c0.1,3.5,0.1,7,0,10.5c0,1.6,0.6,2.3,2.2,2.3c9.6,0,19.1,0,28.7,0
		c1.6,0,2.2-0.6,2.2-2.2c0-3.4-0.1-6.8,0-10.2c0.1-2.1-0.6-3-2.8-2.9C43.6,41.4,39,41.3,34.5,41.3z"/>
	<path class="st1" d="M492.8,71c-5.9,2.6-11.8,5.2-17.7,7.8c-6,2.7-11.9,5.4-18.1,8.2c0-10.8,0-21.4,0-32.3c0.8,0.3,1.7,0.6,2.5,1
		c10.4,4.7,20.7,9.4,31.1,14c0.7,0.3,1.5,0.6,2.3,0.8C492.8,70.7,492.8,70.8,492.8,71z"/>
	<path class="st2" d="M456.6,54.9c-5.9,2.6-11.8,5.2-17.7,7.8c-6,2.7-11.9,5.4-18.1,8.2c0-10.8,0-21.4,0-32.3c0.8,0.3,1.7,0.6,2.5,1
		c10.4,4.7,20.7,9.4,31.1,14c0.7,0.3,1.5,0.6,2.3,0.8C456.6,54.5,456.6,54.7,456.6,54.9z"/>
	<path class="st3" d="M456.6,87.1c-5.9,2.6-11.8,5.2-17.7,7.8c-6,2.7-11.9,5.4-18.1,8.2c0-10.8,0-21.4,0-32.3c0.8,0.3,1.7,0.6,2.5,1
		c10.4,4.7,20.7,9.4,31.1,14c0.7,0.3,1.5,0.6,2.3,0.8C456.6,86.8,456.6,87,456.6,87.1z"/>
	<path class="st4" d="M420.7,103.3c-5.9,2.6-11.8,5.2-17.7,7.8c-6,2.7-11.9,5.4-18.1,8.2c0-10.8,0-21.4,0-32.3
		c0.8,0.3,1.7,0.6,2.5,1c10.4,4.7,20.7,9.4,31.1,14c0.7,0.3,1.5,0.6,2.3,0.8C420.7,103,420.7,103.1,420.7,103.3z"/>
	<path class="st5" d="M420.8,71c-5.9,2.6-11.8,5.2-17.7,7.8c-6,2.7-11.9,5.4-18.1,8.2c0-10.8,0-21.4,0-32.3c0.8,0.3,1.7,0.6,2.5,1
		c10.4,4.7,20.7,9.4,31.1,14c0.7,0.3,1.5,0.6,2.3,0.8C420.8,70.7,420.8,70.8,420.8,71z"/>
	<path class="st6" d="M420.8,38.7c-5.9,2.6-11.8,5.2-17.7,7.8c-6,2.7-11.9,5.4-18.1,8.2c0-10.8,0-21.4,0-32.3c0.8,0.3,1.7,0.6,2.5,1
		c10.4,4.7,20.7,9.4,31.1,14c0.7,0.3,1.5,0.6,2.3,0.8C420.8,38.4,420.8,38.6,420.8,38.7z"/>
	<path class="st0" d="M212.4,69c2.3,0,4.5,0,6.7,0c0.7,3.9,0.7,3.9,4.7,3.9c8.5,0,17-0.1,25.5,0c2.3,0,3.4-0.6,3.2-3.1
		c-0.2-2.2-0.1-4.5,0-6.7c0.1-1.9-0.7-2.6-2.6-2.6c-9.2,0.1-18.5,0-27.7,0c-6.8,0-9.9-3.2-10-9.9c0-2.2,0-4.5,0-6.7
		c0-6,3.3-9.3,9.2-9.3c9.6,0,19.3,0,28.9,0c6.4,0,9.8,4.1,9,10.7c-2.2,0-4.4,0-6.6,0c-0.6-3.9-0.6-3.9-4.7-3.9c-8.5,0-17,0-25.5,0
		c-3.1,0-3.2,0.1-3.2,3.3c0,2.1,0.1,4.2,0,6.2c-0.1,2.1,0.6,2.9,2.8,2.9c9.1-0.1,18.3,0,27.4,0c6.7,0,9.9,3.2,9.9,9.9
		c0,2.7,0.1,5.3,0,8c-0.1,4.3-3.3,7.9-7.7,8c-10.6,0.1-21.3,0.2-31.9,0C214.8,79.4,211.8,75.1,212.4,69z"/>
	<path class="st0" d="M160.1,79.5c-2.5,0-4.7,0-7.2,0c0-5.2,0-10.2,0-15.4c-11.1,0-21.9,0-33,0c0,5.1,0,10.2,0,15.4
		c-2.4,0-4.6,0-7,0c0-0.7-0.1-1.4-0.1-2.2c0-11.2,0-22.5,0-33.7c0-5.6,3.3-9.1,8.9-9.1c9.8,0,19.6,0,29.4,0c5.6,0,9,3.4,9,9
		C160.1,55.4,160.1,67.3,160.1,79.5z M152.9,56.9c0-4.7,0.1-9.3-0.1-13.8c0-0.6-1.2-1.7-1.8-1.7c-9.7-0.1-19.4-0.1-29.2,0
		c-0.7,0-1.9,1-1.9,1.6c-0.2,4.6-0.1,9.2-0.1,13.9C131,56.9,141.8,56.9,152.9,56.9z"/>
	<path class="st0" d="M287.5,34.5c4.9,0,9.8,0,14.7,0c5.5,0.1,8.8,3.3,8.9,8.9c0,9.1,0,18.3,0,27.4c0,5.4-3.3,8.7-8.7,8.8
		c-10,0.1-20,0.1-29.9,0c-5.3,0-8.6-3.4-8.6-8.6c-0.1-9.3-0.1-18.6,0-27.9c0-5.2,3.5-8.5,8.7-8.5C277.5,34.4,282.5,34.5,287.5,34.5z
		 M287.3,72.9c4.7,0,9.3,0,14,0c2,0,2.8-0.6,2.8-2.8c-0.1-8.7-0.1-17.5,0-26.2c0-2.1-0.8-2.8-2.8-2.8c-9.2,0.1-18.5,0-27.7,0
		c-1.9,0-2.7,0.6-2.7,2.6c0.1,8.8,0.1,17.6,0,26.4c0,2,0.7,2.7,2.6,2.6C278.1,72.8,282.7,72.9,287.3,72.9z"/>
	<path class="st0" d="M355.8,34.6c2.5,0,4.7,0,7,0c0,14.9,0,29.8,0,45c-2.5,0-5.1,0.1-7.6-0.1c-0.7-0.1-1.5-0.9-2.1-1.5
		c-9.4-10.6-18.7-21.2-28.1-31.8c-0.5-0.6-1.1-1.2-2.1-2.3c0,12.1,0,23.7,0,35.6c-2.5,0-4.7,0-7.1,0c0-14.9,0-29.8,0-44.9
		c2.6,0,5-0.1,7.5,0.1c0.8,0.1,1.7,1,2.3,1.7c9.4,10.7,18.8,21.3,28.2,32c0.5,0.6,1.1,1.2,2,2.1C355.8,58.2,355.8,46.5,355.8,34.6z"
		/>
	<path class="st0" d="M61.7,34.5c2.3,0,4.5,0,6.9,0c0,12.7,0,25.4,0,38.3c13.5,0,26.7,0,40,0c0,2.3,0,4.3,0,6.6c-15.6,0-31.2,0-47,0
		C61.7,64.5,61.7,49.7,61.7,34.5z"/>
	<path class="st0" d="M161,34.5c2.9,0,5.2-0.1,7.5,0.1c0.8,0.1,1.7,0.9,2.3,1.6c5.2,6.2,10.3,12.4,15.6,18.8
		c3.4-4.1,6.7-8.1,10-12.2c1.1-1.3,2.5-2.6,3.3-4.1c2.6-4.9,6.9-4.7,11.8-4c-1.2,1.6-2.4,3.1-3.5,4.6c-5.6,7.2-11.2,14.4-16.7,21.7
		c-0.7,1-1.2,2.4-1.2,3.6c-0.1,4.9-0.1,9.8-0.1,14.8c-2.5,0-4.7,0-7.2,0c0-4.9,0.1-9.8-0.1-14.5c0-1.4-0.6-2.9-1.4-4
		C174.8,52.2,168.1,43.6,161,34.5z"/>
	<path class="st0" d="M180.5,95.6c0,5.4,0.1,10.4-0.1,15.5c0,0.9-0.6,2-1.2,2.6c-1.6,1.7-7.6,1.7-10.3-0.2c2.4,0,4.2,0,6,0
		c3-0.1,3.6-0.7,3.6-4c-0.7,0.1-1.4,0.1-2.1,0.2c-5.4,0.7-7.8-1.4-7.8-6.9c0-4.6,1-6.7,4.1-7.2C175.3,95.3,177.8,95.6,180.5,95.6z
		 M178.6,96.9c-2.7,0.3-6-1.2-7.2,1.8c-0.9,2.4-0.9,5.8,0.2,8c1.2,2.6,4.4,1.6,7.1,1.1C178.6,104.3,178.6,100.9,178.6,96.9z"/>
	<path class="st0" d="M252.4,95.6c0,5.4,0.1,10.4-0.1,15.5c0,1-0.7,2.1-1.4,2.8c-1.7,1.6-7.5,1.5-10.2-0.4c2.5,0,4.4,0,6.3,0
		c2.8-0.1,3.5-1,3.3-3.8c-1.6,0-3.3,0.1-4.9,0c-0.7,0-1.5-0.2-2.1-0.6c-3.6-2-2.7-5.5-2.7-8.7c0.1-2.5,1.5-4.4,4-4.7
		C247.2,95.4,249.7,95.6,252.4,95.6z M250.6,96.9c-2.8,0.3-6.2-1.2-7.4,1.9c-0.9,2.4-0.9,5.8,0.2,8.1c1.3,2.6,4.5,1.6,7.1,1
		c0-0.6,0.1-1,0.1-1.5C250.6,103.3,250.6,100.3,250.6,96.9z"/>
	<path class="st0" d="M215.1,109.1c0-3.1,0-6.1,0-9.2c0-2-0.8-3.1-3-3c-2.9,0.2-3.8,1-3.7,3.3c0.1,2.6,0.1,5.2,0,7.7
		c0,0.5-0.7,1-1,1.5c-0.3-0.5-0.8-1-0.8-1.5c-0.1-2.7,0-5.3,0-8c0-1.9-0.6-3.2-2.9-3.1c-2.8,0.2-3.9,1.1-3.9,3.3c0,2.5,0,5,0,7.5
		c0,0.6-0.5,1.2-0.8,1.8c-0.3-0.5-0.9-1.1-0.9-1.6c-0.1-3.7,0-7.5,0-11.2c0-0.2,0.2-0.5,0.1-0.2c1.8-0.3,3.3-0.6,4.8-0.8
		c0.5-0.1,1.1-0.3,1.5-0.1c2.7,1.2,5.4,0.4,8.2,0c2.9-0.4,4.2,1,4.4,3.8c0.2,2.9,0.1,5.8,0,8.7c0,0.6-0.7,1.1-1.1,1.7
		C215.6,109.5,215.4,109.3,215.1,109.1z"/>
	<path class="st0" d="M131.1,95.4c0,6.8,0,13,0,19.6c-3-1.3-0.8-4-2.2-5.7c-0.9,0.1-2,0.4-3.1,0.5c-3.9,0.4-5.8-1.2-6.3-5
		c-0.1-0.8-0.1-1.7-0.1-2.5c0.1-5.2,1.8-6.9,6.9-6.9C127.8,95.4,129.4,95.4,131.1,95.4z M129.4,97.2c-7.2-1-9.2,1-8,7.7
		c0.2,1.2,1.3,2.8,2.3,3.1c1.6,0.4,3.5-0.1,5.3-0.4c0.2,0,0.4-0.8,0.4-1.3C129.4,103.3,129.4,100.3,129.4,97.2z"/>
	<path class="st0" d="M161.5,109.1c-2.9,0.8-5.9,1.1-8.9,0.1c-2.2-0.7-2.9-2.5-3.2-4.6c-0.1-0.8-0.1-1.7-0.1-2.5
		c0.1-4.8,2.3-6.9,6.9-6.7c4,0.2,5.9,2.7,5.6,7.6c-3.4,0-6.9,0-10.3,0c-0.5,3.4,0.6,5,3.8,5.2c2,0.2,4.1,0,6.1,0
		C161.4,108.6,161.4,108.9,161.5,109.1z M151.3,101.6c2.9,0,5.7,0,8.5,0c0-3.4-1.1-4.7-4.1-4.7C152.7,96.9,151.4,98.2,151.3,101.6z"
		/>
	<path class="st0" d="M184.4,96c2.7-0.9,5.5-1,8.2-0.1c2.4,0.8,2,3.1,2.1,5.1c0,2.7,0,5.5,0,7.9c-2.1,0.3-4,0.6-5.9,0.8
		c-3,0.4-5-0.7-5.4-3c-0.6-2.9,0.8-4.9,3.8-5.2c1.8-0.2,3.6-0.2,5.4-0.3c0.4-3.6-0.1-4.2-3.4-4.3c-1.6,0-3.1,0-4.7,0
		C184.4,96.6,184.4,96.3,184.4,96z M192.5,102.6c-1.5,0-2.8,0-4.1,0c-0.5,0-1,0.2-1.5,0.3c-1.6,0.4-2.1,1.8-1.7,3.1
		c0.3,0.9,1.2,2.1,2.1,2.3C191.4,109.3,193.2,107.4,192.5,102.6z"/>
	<path class="st0" d="M284.9,102.6c0,5-2,7.3-6.4,7.3c-4.4,0-6.3-2.3-6.3-7.4c0-4.9,1.9-7,6.3-7.1
		C282.9,95.4,284.9,97.6,284.9,102.6z M274,102.4c0,0.3,0,0.7,0,1c0.1,3.5,1.4,5,4.5,5c3,0,4.4-1.5,4.5-5c0-0.9,0-1.8-0.1-2.7
		c-0.4-2.5-1.6-3.6-4.2-3.7C275.3,96.9,274,98.3,274,102.4z"/>
	<path class="st0" d="M336,102.7c0,5.1-2.1,7.4-6.7,7.2c-3.8-0.2-5.7-2.1-5.9-5.9c0-0.4,0-0.8,0-1.2c0-5.2,1.8-7.2,6.3-7.2
		C334.2,95.4,336,97.5,336,102.7z M334.1,102.5c0-4.1-1.1-5.5-4.3-5.6c-3.4,0-4.6,1.5-4.6,5.6c0,0.9-0.1,2,0.3,2.7
		c0.7,1.1,1.7,2.6,2.9,2.9C332.1,109.3,334.1,107.2,334.1,102.5z"/>
	<path class="st0" d="M99.3,109.2c0-4.5,0-8.9,0-12.9c1.9-0.3,3.6-0.5,5.3-0.8c4.4-0.8,6.4,0.8,6.5,5.2c0.1,2.4,0.1,4.8,0,7.2
		c0,0.6-0.6,1.2-0.9,1.8c-0.3-0.1-0.6-0.2-0.9-0.3c0-2.9,0.2-5.8-0.1-8.6c-0.1-1.3-1-3.5-1.8-3.5c-2-0.2-4,0.5-6,1
		c-0.3,0.1-0.3,1.2-0.3,1.9c0,2.6,0,5.2-0.1,7.7c0,0.6-0.5,1.2-0.8,1.8C99.9,109.5,99.6,109.4,99.3,109.2z"/>
	<path class="st0" d="M145.4,95.6c0.4,0.5,1.1,1,1.1,1.5c0.1,4.1,0.1,8.1,0.1,11.8c-2.5,0.4-4.7,0.8-7,1c-3,0.2-4.7-1.2-4.8-4.1
		c-0.1-3.2,0-6.5,0-9.7c0.2-0.1,0.5-0.3,0.7-0.4c0.4,0.6,1,1.2,1,1.8c0.1,2.6,0,5.2,0.1,7.7c0.1,2.6,1.3,3.5,3.9,3.2
		c3.9-0.5,4.2-0.9,4.2-4.8c0-2.5,0-5,0-7.4C144.9,95.9,145.2,95.7,145.4,95.6z"/>
	<path class="st0" d="M305,108.8c-2.3,0.4-4.3,0.7-6.2,1c-3.5,0.5-5.5-1-5.7-4.5c-0.1-2.7-0.1-5.3,0-8c0-0.5,0.5-1,0.8-1.5
		c0.3,0.5,1,1,1,1.6c0.1,2.5,0,5,0.1,7.5c0.1,2.9,1.3,3.9,4.1,3.5c3.8-0.6,4-0.8,4-4.7c0-2.1-0.1-4.2,0-6.2c0-0.5,0.6-1.1,1-1.6
		c0.3,0.5,0.8,1,0.8,1.4C305,101.2,305,105.2,305,108.8z"/>
	<path class="st0" d="M95.7,108.8c-2.4,0.4-4.4,0.7-6.4,1c-3.3,0.4-5.2-1-5.4-4.3c-0.2-2.8-0.1-5.6,0-8.5c0-0.4,0.5-0.8,0.8-1.3
		c0.4,0.4,1,0.8,1,1.3c0.1,2.7,0,5.3,0.1,8c0.1,2.7,1.3,3.7,4,3.3c3.8-0.6,4.1-0.9,4.1-4.7c0-2.2-0.1-4.3,0-6.5
		c0-0.5,0.6-0.9,0.9-1.4c0.3,0.5,0.9,0.9,0.9,1.4C95.8,101.2,95.7,105.2,95.7,108.8z"/>
	<path class="st0" d="M226,96.3c2-0.3,3.5-0.4,5-0.7c4.6-1,6.7,0.6,6.8,5.2c0.1,2.4,0.1,4.8,0,7.2c0,0.6-0.7,1.1-1,1.7
		c-0.3-0.1-0.5-0.2-0.8-0.4c0-2.8,0-5.6,0-8.4c0-3.2-0.8-4-3.4-4c-3.7,0.1-4.8,1-4.8,4c0,2.4,0,4.8-0.1,7.2c0,0.5-0.6,0.9-1,1.3
		c-0.3-0.4-0.7-0.9-0.7-1.3C226,104.1,226,100,226,96.3z"/>
	<path class="st0" d="M338.8,96.3c2-0.3,3.5-0.4,5-0.7c4.5-1,6.7,0.5,6.9,5.1c0.1,2.4,0.1,4.8,0,7.2c0,0.6-0.6,1.2-1,1.7
		c-0.3-0.1-0.6-0.2-0.9-0.3c0-2.8,0.2-5.6-0.1-8.4c-0.1-1.3-0.9-3.6-1.6-3.7c-2-0.2-4.2,0.5-6.2,1c-0.3,0.1-0.3,1.2-0.4,1.8
		c0,2.6,0,5.2-0.1,7.7c0,0.6-0.6,1.1-0.9,1.7c-0.3-0.5-0.8-1-0.8-1.5C338.8,103.9,338.8,99.9,338.8,96.3z"/>
	<path class="st0" d="M259.9,108.1c1.9,0.1,3.6,0.5,5.1,0.2c1.2-0.2,2.9-0.9,3.3-1.8c0.7-1.7-1-2.3-2.3-2.9c-1.4-0.6-3.1-1-4.3-1.9
		c-0.9-0.8-1.9-2.4-1.7-3.4c0.2-1,1.6-2.3,2.8-2.6c2.2-0.5,4.6-0.6,6.8,0.4c0,0.3,0,0.6,0,0.8c-1.2,0-2.4-0.1-3.7,0
		c-1.6,0.1-3.7-0.7-4.1,1.6c-0.4,2,1.8,2.3,3.1,2.9c1.3,0.6,2.8,1.1,4,1.9c2.2,1.5,2,5.1-0.6,5.7c-2.6,0.6-5.3,0.1-8,0.1
		C260.2,109.2,260.1,108.8,259.9,108.1z"/>
	<path class="st0" d="M362.9,96.9c-1.8,0-3.6-0.2-5.4,0.1c-0.8,0.1-2.1,0.8-2.2,1.4c-0.1,0.7,0.7,1.8,1.4,2.2
		c1.6,0.9,3.5,1.2,4.9,2.3c1,0.8,2.1,2.4,2,3.5c-0.1,1.1-1.6,2.6-2.8,2.9c-2.1,0.4-4.4,0.1-6.7,0c-0.3,0-0.6-0.6-1.2-1.3
		c2.3,0.1,4,0.5,5.6,0.2c1.2-0.2,2.2-1.3,3.3-1.9c-0.8-0.9-1.4-2.1-2.4-2.7c-1.3-0.8-2.9-1.2-4.3-1.9c-1.5-0.8-2.4-2.2-1.7-3.7
		c0.4-1,1.7-2.1,2.8-2.4c2.2-0.5,4.6-0.7,6.8,0.4C363,96.4,362.9,96.7,362.9,96.9z"/>
	<path class="st0" d="M316.3,108.4c-3.5,2.6-6.1,1.3-6.2-2.6c-0.1-2.7,0-5.3-0.1-8c0-0.2-0.1-0.3-0.2-0.6c-0.9-0.1-1.8-0.3-2.8-0.4
		c0-0.2-0.1-0.4-0.1-0.6c0.9-0.3,1.9-0.5,3-0.8c1-0.7-1-3.4,2-3.4c0.1,1.3,0.1,2.3,0.2,3.5c1.5,0.1,2.9,0.3,4.3,0.4
		c0,0.3,0,0.6,0,0.8c-1.3,0.2-2.7,0.4-4.4,0.6c0,3.2-0.1,6.4,0.1,9.6c0,0.5,0.9,1.2,1.6,1.4C314.4,108.6,315.4,108.4,316.3,108.4z"
		/>
	<path class="st0" d="M288.9,109.7c-0.4-0.5-1.1-0.9-1.1-1.4c-0.1-5.6-0.1-11.3,0-16.9c0-0.5,0.7-1,1-1.6c0.2,0.1,0.4,0.2,0.6,0.3
		c0,6.4,0,12.8,0,19.3C289.2,109.4,289.1,109.5,288.9,109.7z"/>
	<path class="st0" d="M114.6,109.1c0-4.1,0-8.1,0-12.2c0-0.4,0.5-0.8,0.8-1.2c0.3,0.4,0.9,0.8,0.9,1.2c0.1,3.8,0.1,7.6,0,11.5
		c0,0.4-0.8,0.8-1.2,1.2C115,109.5,114.8,109.3,114.6,109.1z"/>
	<path class="st0" d="M220.6,95.9c2,0.3,2.1,0.3,1.7,11.6c0,0.7-0.6,1.4-0.9,2.1c-0.3-0.1-0.5-0.2-0.8-0.3
		C220.6,104.8,220.6,100.4,220.6,95.9z"/>
	<path class="st0" d="M318.5,109.1c0-4,0-7.9,0-11.9c0-0.5,0.5-1,0.8-1.4c0.3,0.5,1,1,1,1.6c0.1,3.6,0.1,7.1,0,10.7
		c0,0.6-0.7,1.1-1,1.7C319.1,109.5,318.8,109.3,318.5,109.1z"/>
</g>
</svg>
