<?xml version="1.0" encoding="utf-8"?>
<!-- Generator: Adobe Illustrator 25.4.1, SVG Export Plug-In . SVG Version: 6.00 Build 0)  -->
<svg version="1.1" id="圖層_1" xmlns="http://www.w3.org/2000/svg" xmlns:xlink="http://www.w3.org/1999/xlink" x="0px" y="0px"
	 viewBox="0 0 263.6 186" style="enable-background:new 0 0 263.6 186;" xml:space="preserve">
<style type="text/css">
	.st0{fill:#FFFFFF;}
	.st1{fill:#FF0000;}
</style>
<rect x="75.8" y="43.9" class="st0" width="113" height="100"/>
<g>
	<path class="st1" d="M133.9,178.9c-0.7,0-1.4,0-2.1,0c-0.5-0.1-0.9-0.2-1.4-0.2c-15.3-0.3-30.5-0.4-45.8-0.9
		c-13.8-0.4-27.7-1.1-41.4-3.1C29,172.6,19,163.3,16,149.3c-2-9.9-2.9-19.9-3.5-29.9c-0.8-14.2-1-28.5-0.4-42.8
		c0.6-12.7,1.3-25.4,3.8-38c2.7-13.2,11.9-22.8,25.2-25C50,12.2,59,11.4,67.9,11c18.6-0.8,37.2-1.1,55.7-1.6
		c2.7-0.1,5.5-0.2,8.2-0.3c0.7,0,1.4,0,2.1,0c0.5,0.1,0.9,0.2,1.4,0.2c15.1,0.3,30.3,0.4,45.4,0.9c13.8,0.4,27.5,1.1,41.2,3.1
		c9.9,1.4,17.9,5.7,23.4,14.3c2.9,4.6,4.1,9.8,5,15c2.6,14.9,3.4,30,3.4,45c0,12.4-0.3,24.8-1.1,37.1c-0.6,8.7-1.7,17.3-3.5,25.8
		c-2.8,13.2-11.2,21.4-24.5,23.7c-8.9,1.5-18,2.4-27,2.7c-18.6,0.8-37.1,1.1-55.7,1.6C139.3,178.7,136.6,178.8,133.9,178.9z
		 M108.8,57.8c0,24.2,0,48.2,0,72.4c21-12.1,41.8-24,62.8-36.1C150.6,82,129.8,69.9,108.8,57.8z"/>
</g>
</svg>
